<svg width="227" height="81" viewBox="0 0 227 81" fill="none" xmlns="http://www.w3.org/2000/svg">
<path d="M219.977 51.9517C216.773 51.9517 215.688 48.4705 215.688 45.1154C215.688 41.7602 216.773 38.3044 219.977 38.3044C223.18 38.3044 224.265 41.7602 224.265 45.1154C224.265 48.4705 223.18 51.9517 219.977 51.9517ZM219.977 53.8185C224.568 53.8185 226.409 49.202 226.409 45.1154C226.409 41.0034 224.568 36.4376 219.977 36.4376C215.36 36.4376 213.544 41.0034 213.544 45.1154C213.544 49.202 215.36 53.8185 219.977 53.8185ZM203.493 51.9517C200.567 51.9517 199.457 49.3534 199.28 47.2596C199.719 46.5254 200.334 45.9124 201.07 45.4763C201.805 45.0401 202.639 44.7947 203.493 44.7622C205.638 44.7622 207.353 45.9226 207.353 48.3949C207.341 48.8844 207.23 49.3664 207.028 49.8124C206.826 50.2584 206.537 50.6592 206.176 50.991C205.816 51.3228 205.393 51.5788 204.932 51.7439C204.471 51.9089 203.982 51.9796 203.493 51.9517ZM203.594 53.8185C207.252 53.8185 209.472 51.2202 209.472 48.319C209.472 44.737 207 42.9458 203.972 42.9458C203.028 42.9801 202.105 43.2353 201.277 43.6909C200.449 44.1465 199.739 44.7898 199.205 45.5693V44.9137C199.205 41.609 200.668 38.3044 203.947 38.3044C204.638 38.281 205.325 38.4247 205.948 38.7233C206.572 39.0219 207.114 39.4666 207.529 40.0196L208.589 38.4556C208.02 37.7879 207.306 37.259 206.502 36.9093C205.697 36.5596 204.824 36.3982 203.947 36.4376C199.205 36.4376 197.086 40.5746 197.086 45.1154C197.086 49.7065 198.877 53.8185 203.594 53.8185ZM186.909 53.8185C190.617 53.8185 192.887 51.7751 192.887 48.975C192.887 46.2504 190.516 44.964 189.003 44.8126C190.567 44.5604 192.61 43.3496 192.61 40.9024C192.61 38.0771 190.163 36.4376 186.934 36.4376C185.837 36.4037 184.747 36.62 183.746 37.0702C182.745 37.5204 181.86 38.1926 181.157 39.0359L182.318 40.3475C182.86 39.6991 183.54 39.1794 184.307 38.826C185.075 38.4726 185.912 38.2945 186.758 38.3044C188.801 38.3044 190.516 39.3133 190.516 41.1801C190.516 43.1224 188.725 43.955 186.606 43.955C185.925 43.955 185.143 43.955 184.866 43.9298V45.847C185.118 45.8218 185.9 45.8218 186.606 45.8218C189.078 45.8218 190.794 46.7046 190.794 48.7984C190.794 50.7157 189.305 51.9517 186.858 51.9517C185.958 51.9682 185.066 51.7764 184.252 51.3913C183.438 51.0061 182.724 50.4382 182.166 49.7317L180.93 51.0436C181.965 52.557 184.058 53.8185 186.909 53.8185ZM164.8 50.3624H161.748V39.843H164.825C168.256 39.843 170.072 42.1387 170.072 45.0903C170.072 47.9659 168.13 50.3624 164.8 50.3624ZM164.825 53.5158C170.072 53.5158 173.73 50.1858 173.73 45.0903C173.73 40.0449 170.072 36.6898 164.8 36.6898H158.166V53.5158H164.825ZM153.828 53.5158V50.3624H145.503V46.5281H153.651V43.3748H145.503V39.843H153.828V36.6898H141.921V53.5158H153.828ZM131.226 53.8185C132.665 53.8523 134.084 53.4827 135.323 52.7515C136.563 52.0203 137.573 50.9568 138.239 49.6813L135.161 48.1929C134.785 48.9158 134.221 49.5243 133.528 49.9547C132.836 50.3851 132.041 50.6217 131.226 50.6398C128.148 50.6398 125.929 48.2938 125.929 45.1154C125.929 41.9368 128.148 39.5908 131.226 39.5908C132.041 39.6089 132.836 39.8456 133.528 40.276C134.221 40.7064 134.785 41.3149 135.161 42.0377L138.239 40.5242C137.575 39.2487 136.565 38.1863 135.324 37.459C134.084 36.7318 132.663 36.369 131.226 36.4125C126.155 36.4125 122.246 39.9187 122.246 45.1155C122.246 50.2867 126.155 53.8185 131.226 53.8185ZM118.185 53.5158V36.6898H114.603V47.2596L106.808 36.6898H103.125V53.5158H106.707V42.5423L114.729 53.5158H118.185ZM93.9188 47.5118H88.6718L91.2953 40.2719L93.9188 47.5118ZM100.024 53.5158L93.5402 36.6898H89.05L82.5667 53.5158H86.6283L87.688 50.6651H94.9024L95.962 53.5158H100.024ZM75.9335 53.5158L82.4168 36.6898H78.3554L73.6886 49.6058L69.0217 36.6898H64.9601L71.4434 53.5158H75.9335ZM54.2151 50.3624H51.1627V39.843H54.2403C57.6712 39.843 59.4873 42.1387 59.4873 45.0903C59.4873 47.9659 57.545 50.3624 54.2151 50.3624ZM54.2404 53.5158C59.4873 53.5158 63.1452 50.1858 63.1452 45.0903C63.1452 40.0449 59.4873 36.6898 54.2151 36.6898H47.5807V53.5158H54.2404ZM38.3744 47.5118H33.1272L35.7507 40.2719L38.3744 47.5118ZM44.4791 53.5158L37.9958 36.6898H33.5056L27.0224 53.5158H31.0839L32.1434 50.6651H39.3579L40.4175 53.5158H44.4791Z" fill="#FEFEFE"/>
<path d="M190.903 65.5948C192.927 65.5948 193.923 64.5544 193.923 63.1748C193.923 60.359 189.591 61.1619 189.591 59.9743C189.591 59.5222 189.976 59.2282 190.654 59.2282C191.463 59.2199 192.245 59.5143 192.848 60.0535L193.742 58.8549C192.933 58.1392 191.88 57.7625 190.801 57.8032C189.026 57.8032 187.94 58.8436 187.94 60.0989C187.94 62.9374 192.283 62.0212 192.283 63.3331C192.283 63.7743 191.864 64.17 190.971 64.17C190.522 64.1696 190.079 64.0782 189.667 63.9013C189.254 63.7244 188.883 63.4657 188.573 63.1408L187.691 64.3962C188.118 64.8028 188.622 65.1187 189.174 65.3247C189.726 65.5308 190.315 65.6226 190.903 65.5948ZM177.679 65.4592V57.9163H176.073V62.6546L172.579 57.9163H170.928V65.4592H172.534V60.5398L176.13 65.4592H177.679ZM156.822 64.17C155.42 64.17 154.526 63.0956 154.526 61.6934C154.526 60.2799 155.42 59.2169 156.822 59.2169C158.213 59.2169 159.106 60.2799 159.106 61.6934C159.106 63.0956 158.213 64.17 156.822 64.17ZM156.822 65.5948C157.592 65.5859 158.342 65.3496 158.977 64.9155C159.613 64.4814 160.106 63.8689 160.394 63.1552C160.683 62.4416 160.754 61.6585 160.598 60.9046C160.443 60.1507 160.067 59.4597 159.52 58.9186C158.972 58.3774 158.277 58.0102 157.522 57.8633C156.766 57.7164 155.984 57.7963 155.273 58.0929C154.563 58.3896 153.956 58.8897 153.53 59.5303C153.103 60.171 152.875 60.9236 152.875 61.6934C152.859 62.2139 152.95 62.7323 153.144 63.216C153.337 63.6997 153.628 64.1383 153.998 64.5045C154.368 64.8706 154.81 65.1564 155.296 65.3441C155.782 65.5317 156.302 65.617 156.822 65.5948ZM142.705 65.4592V57.9163H141.099V65.4592H142.705ZM128.836 65.4592V59.3299H131.03V57.9163H125.014V59.3299H127.219V65.4592H128.836ZM111.541 65.5948C113.837 65.5948 114.945 64.3057 114.945 62.4398V57.9163H113.305V62.3945C113.306 62.6275 113.261 62.8582 113.172 63.0737C113.084 63.2891 112.954 63.4849 112.789 63.6499C112.625 63.8149 112.429 63.9458 112.214 64.0351C111.999 64.1244 111.769 64.1704 111.536 64.1704C111.303 64.1704 111.072 64.1244 110.857 64.0351C110.642 63.9458 110.446 63.8149 110.282 63.6499C110.118 63.4849 109.987 63.2891 109.899 63.0737C109.81 62.8582 109.765 62.6275 109.766 62.3945V57.9164H108.137V62.4398C108.137 64.3057 109.246 65.5948 111.541 65.5948ZM98.2836 65.4592V64.0455H95.0945V57.9163H93.4773V65.4592L98.2836 65.4592ZM79.4392 64.17C78.0368 64.17 77.1435 63.0956 77.1435 61.6934C77.1435 60.2799 78.0368 59.2169 79.4392 59.2169C80.8302 59.2169 81.7235 60.2799 81.7235 61.6934C81.7235 63.0956 80.8302 64.17 79.4392 64.17ZM79.4392 65.5948C80.209 65.5859 80.9588 65.3495 81.5945 64.9154C82.2302 64.4813 82.7233 63.8689 83.0117 63.1552C83.3001 62.4415 83.3709 61.6584 83.2153 60.9045C83.0596 60.1507 82.6845 59.4597 82.137 58.9185C81.5896 58.3774 80.8943 58.0102 80.1387 57.8633C79.3831 57.7164 78.6009 57.7963 77.8906 58.093C77.1803 58.3896 76.5736 58.8897 76.1468 59.5304C75.7201 60.171 75.4924 60.9236 75.4924 61.6934C75.4762 62.214 75.5675 62.7323 75.7607 63.216C75.954 63.6997 76.2449 64.1383 76.6153 64.5045C76.9857 64.8706 77.4277 65.1565 77.9136 65.3441C78.3995 65.5317 78.9189 65.617 79.4392 65.5948ZM62.7209 65.5948C64.7452 65.5948 65.7403 64.5544 65.7403 63.1748C65.7403 60.359 61.4091 61.1619 61.4091 59.9743C61.4091 59.5222 61.7935 59.2282 62.4721 59.2282C63.2807 59.2199 64.0633 59.5143 64.666 60.0535L65.5594 58.8549C64.7511 58.1392 63.698 57.7625 62.6191 57.8032C60.8437 57.8032 59.7579 58.8436 59.7579 60.0989C59.7579 62.9374 64.1006 62.0212 64.1006 63.3331C64.1006 63.7743 63.6822 64.17 62.7886 64.17C62.3402 64.1696 61.8965 64.0782 61.4844 63.9013C61.0723 63.7244 60.7004 63.4657 60.3912 63.1408L59.5092 64.3962C59.9356 64.8028 60.4401 65.1187 60.9922 65.3247C61.5442 65.5307 62.1324 65.6226 62.7209 65.5948Z" fill="#0096E8"/>
<path fill-rule="evenodd" clip-rule="evenodd" d="M74.4008 25.1029C78.2269 28.5924 78.0813 31.4124 78.3069 33.3303C79.2567 29.2841 78.8241 25.5886 76.7574 22.597C68.4177 9.90516 40.0372 17.7269 20.2734 31.4544C19.7367 19.7664 22.2693 9.2201 28.957 4.70673C36.5363 -0.460605 44.6004 6.1242 44.8574 5.93143C39.0887 1.29351 32.8036 -0.354558 27.1116 2.11767C16.8723 6.32555 13.4121 20.5047 14.7396 35.6488C4.99855 43.7179 -1.32517 53.1251 0.474079 61.4799C1.5938 67.2926 6.5607 70.8222 13.7824 71.9994C8.11514 70.2172 3.65228 67.3219 3.72634 61.1271C3.76992 54.8904 8.4985 48.0735 15.5443 41.8758C18.927 61.727 29.9783 81.1336 44.3168 80.1957C50.4918 79.9158 55.4747 75.6542 58.7377 68.9214C55.1329 74.1866 51.1427 77.9595 44.8974 77.0442C32.6217 75.3055 23.2686 56.1288 20.8289 37.6481C38.5213 24.7306 64.874 16.2182 74.4008 25.1029Z" fill="#0096E8"/>
</svg>
